<svg width="72" height="72" viewBox="0 0 72 72" fill="none" xmlns="http://www.w3.org/2000/svg">
<g clip-path="url(#clip0)">
<path fill-rule="evenodd" clip-rule="evenodd" d="M3.1 10.1V50.9H68.9V10.1H3.1ZM2 7C0.89543 7 0 7.89543 0 9V52C0 53.1046 0.895431 54 2 54H70C71.1045 54 72 53.1046 72 52V9C72 7.89543 71.1045 7 70 7H2Z" fill="#3275EE"/>
<path fill-rule="evenodd" clip-rule="evenodd" d="M43.5 37.9C48.6915 37.9 52.9 33.6915 52.9 28.5C52.9 23.3085 48.6915 19.1 43.5 19.1C38.3085 19.1 34.1 23.3085 34.1 28.5C34.1 33.6915 38.3085 37.9 43.5 37.9ZM43.5 41C50.4035 41 56 35.4036 56 28.5C56 21.5964 50.4035 16 43.5 16C36.5964 16 31 21.5964 31 28.5C31 35.4036 36.5964 41 43.5 41Z" fill="#3275EE"/>
<path fill-rule="evenodd" clip-rule="evenodd" d="M50.9042 35.9042C51.5095 35.2989 52.4909 35.2989 53.0962 35.9042L62.5962 45.4042C63.2015 46.0095 63.2015 46.9909 62.5962 47.5962C61.9909 48.2015 61.0095 48.2015 60.4042 47.5962L50.9042 38.0962C50.2988 37.4909 50.2988 36.5095 50.9042 35.9042Z" fill="#3275EE"/>
<path fill-rule="evenodd" clip-rule="evenodd" d="M9.55 28C10.406 28 11.1 28.694 11.1 29.55V45.45C11.1 46.306 10.406 47 9.55 47C8.69396 47 8 46.306 8 45.45V29.55C8 28.694 8.69396 28 9.55 28Z" fill="#3275EE"/>
<path fill-rule="evenodd" clip-rule="evenodd" d="M15.55 17C16.406 17 17.1 17.694 17.1 18.55V45.45C17.1 46.306 16.406 47 15.55 47C14.6939 47 14 46.306 14 45.45V18.55C14 17.694 14.6939 17 15.55 17Z" fill="#3275EE"/>
<path fill-rule="evenodd" clip-rule="evenodd" d="M21.55 23C22.406 23 23.1 23.694 23.1 24.55V45.45C23.1 46.306 22.406 47 21.55 47C20.6939 47 20 46.306 20 45.45V24.55C20 23.694 20.6939 23 21.55 23Z" fill="#3275EE"/>
<path fill-rule="evenodd" clip-rule="evenodd" d="M27.55 34C28.406 34 29.1 34.694 29.1 35.55V45.45C29.1 46.306 28.406 47 27.55 47C26.6939 47 26 46.306 26 45.45V35.55C26 34.694 26.6939 34 27.55 34Z" fill="#3275EE"/>
<path fill-rule="evenodd" clip-rule="evenodd" d="M30 66V53H33.1V66H30Z" fill="#3275EE"/>
<path fill-rule="evenodd" clip-rule="evenodd" d="M48 67.55C48 68.406 47.306 69.1 46.45 69.1H26.55C25.6939 69.1 25 68.406 25 67.55C25 66.694 25.6939 66 26.55 66H46.45C47.306 66 48 66.694 48 67.55Z" fill="#3275EE"/>
<path fill-rule="evenodd" clip-rule="evenodd" d="M40 66V53H43.1V66H40Z" fill="#3275EE"/>
</g>
<defs>
<clipPath id="clip0">
<rect width="72" height="72" fill="white"/>
</clipPath>
</defs>
</svg>
