<svg width="72" height="72" viewBox="0 0 72 72" fill="none" xmlns="http://www.w3.org/2000/svg">
<g clip-path="url(#clip0)">
<path d="M1.55029 43.1678C1.55029 40.7101 3.54262 38.7178 6.00029 38.7178H38.0002C40.4579 38.7178 42.4502 40.7101 42.4502 43.1678V66.0011C42.4502 68.4588 40.4579 70.4511 38.0002 70.4511H6.00029C3.54262 70.4511 1.55029 68.4588 1.55029 66.0011V43.1678Z" stroke="#3275EE" stroke-width="3.1"/>
<path d="M2.00049 47L20.7607 58.6825C21.0745 58.8779 21.4704 58.8843 21.7903 58.6991L42.0004 47" stroke="#3275EE" stroke-width="3.1" stroke-linecap="round"/>
<path d="M51.4547 23.659L38.7189 31.9789C37.3886 32.8479 35.625 31.8935 35.625 30.3045V25.3333C35.625 24.2288 34.7296 23.3333 33.625 23.3333H17C15.8955 23.3333 15 22.4379 15 21.3333V4C15 2.89543 15.8955 2 17 2H68C69.1046 2 70 2.89543 70 4V21.3333C70 22.4379 69.1046 23.3333 68 23.3333H52.5485C52.1601 23.3333 51.78 23.4465 51.4547 23.659Z" fill="white" stroke="#3275EE" stroke-width="3.1" stroke-linecap="round"/>
<path d="M63.4502 9.4502H22.5502" stroke="#3275EE" stroke-width="3.1" stroke-linecap="round"/>
<path d="M46.4502 15.4502L22.5502 15.4502" stroke="#3275EE" stroke-width="3.1" stroke-linecap="round"/>
</g>
<defs>
<clipPath id="clip0">
<rect width="72" height="72" fill="white"/>
</clipPath>
</defs>
</svg>
