<svg width="72" height="72" viewBox="0 0 72 72" fill="none" xmlns="http://www.w3.org/2000/svg">
<g clip-path="url(#clip0)">
<path d="M69.9673 15.7165C68.5061 14.5991 66.5527 14.3283 64.8455 15.0007L47.6217 20.5411C47.5651 20.5592 47.5096 20.5795 47.4552 20.6026C45.7265 21.3211 44.5021 22.9218 44.2598 24.7791C44.0181 26.6358 44.7921 28.4963 46.2797 29.6345L47.6299 30.6672L42.7893 35.7138L28.9465 20.4862C27.3041 18.5465 24.9052 17.466 22.352 17.5253C19.7889 17.5863 17.4296 18.7926 15.8712 20.8443L1.73777 39.676C0.384246 41.4585 -0.194184 43.6618 0.109039 45.8794C0.41281 48.0976 1.56144 50.0641 3.34452 51.4176C4.85623 52.5662 6.63602 53.1205 8.40207 53.1205C10.935 53.1205 13.4399 51.9796 15.0862 49.8114C15.09 49.807 15.0933 49.8021 15.0972 49.7971L22.9562 39.264L36.2415 53.8494C37.812 55.7034 40.1037 56.7822 42.5449 56.8114H42.635C45.0349 56.8114 47.3206 55.7814 48.9104 53.9846L61.0129 40.9054L63.075 42.483C63.9243 43.1323 64.9378 43.5042 66.0056 43.5575C66.7813 43.597 67.5717 43.4597 68.2897 43.1608C70.0184 42.4418 71.2428 40.8416 71.4845 38.9844C71.4938 38.9124 71.4993 38.8399 71.5015 38.7669L72.0014 20.4494C72.1942 18.6339 71.4224 16.8299 69.9673 15.7165ZM68.5863 19.311C68.577 19.3829 68.5715 19.456 68.5693 19.5285L67.9379 39.3609C67.8709 39.6751 67.6523 39.9404 67.3529 40.0651C67.2167 40.1217 67.0732 40.147 66.9255 40.1393C66.7256 40.1294 66.5361 40.0596 66.3768 39.9382L61.9317 37.4421C61.0555 36.772 59.813 36.8785 59.0643 37.6882L45.7144 52.0018C45.7018 52.0149 45.6897 52.0287 45.6776 52.0424C44.8981 52.9296 43.7742 53.4382 42.5932 53.4382H42.5449C41.3457 53.4239 40.2163 52.8884 39.4462 51.9693C39.427 51.9468 39.4077 51.9243 39.388 51.9023L24.5361 36.6984C24.1301 36.2529 23.5561 36.0007 22.9562 36.0007C22.9216 36.0007 22.887 36.0013 22.8519 36.0029C22.2147 36.0342 21.6247 36.3484 21.2435 36.8599L12.4053 47.543C11.0348 49.3409 7.45594 50.0352 5.65528 48.668C3.85242 47.2991 3.15369 43.7302 4.53028 41.918L18.5928 22.793C19.3531 21.7927 21.0996 21.1351 22.352 21.1055C23.6121 21.078 24.8948 22.305 25.6995 23.2657C25.7182 23.2882 25.7374 23.3097 25.7567 23.3311L41.237 38.6759C41.6352 39.1142 42.1977 39.3675 42.7893 39.3757C43.3809 39.3867 43.9506 39.1456 44.3604 38.7182L51.1893 31.5007C51.6106 31.0618 51.8243 30.4647 51.7781 29.8583C51.7314 29.2518 51.4288 28.6937 50.9459 28.324L48.2147 25.8521C47.9362 25.6395 47.7917 25.2912 47.8368 24.9435C47.8796 24.6172 48.084 24.3332 48.3768 24.1882L67.0658 18.3365C67.1224 18.3184 67.1779 18.298 67.2328 18.275C67.5563 18.1404 67.9299 18.1893 68.2084 18.4018C68.4869 18.6155 68.6319 18.9633 68.5863 19.311Z" fill="#3275EE"/>
</g>
<defs>
<clipPath id="clip0">
<rect width="72" height="72" fill="white" transform="translate(-0.000488281)"/>
</clipPath>
</defs>
</svg>
