<svg width="72" height="72" viewBox="0 0 72 72" fill="none" xmlns="http://www.w3.org/2000/svg">
<path d="M2 51.5V69C2 69.5523 2.44772 70 3 70H20.5" stroke="#3275EE" stroke-width="3.1" stroke-linecap="round"/>
<path d="M20.5 2H3C2.44772 2 2 2.44771 2 3V20.5" stroke="#3275EE" stroke-width="3.1" stroke-linecap="round"/>
<path d="M51.5 2H69C69.5522 2 70 2.44771 70 3V20.5" stroke="#3275EE" stroke-width="3.1" stroke-linecap="round"/>
<path d="M70 51.5V69C70 69.5523 69.5522 70 69 70H51.5" stroke="#3275EE" stroke-width="3.1" stroke-linecap="round"/>
<path fill-rule="evenodd" clip-rule="evenodd" d="M58.6399 48.902V41.0857C58.6399 37.5728 55.7921 34.725 52.2792 34.725C48.7662 34.725 45.9184 37.5728 45.9184 41.0857V48.902H58.6399ZM52.2792 31.625C47.0542 31.625 42.8184 35.8607 42.8184 41.0857V50.002C42.8184 51.1065 43.7139 52.002 44.8184 52.002H59.7399C60.8445 52.002 61.7399 51.1065 61.7399 50.002V41.0857C61.7399 35.8607 57.5042 31.625 52.2792 31.625Z" fill="#3275EE"/>
<path fill-rule="evenodd" clip-rule="evenodd" d="M52.2788 29.9839C54.184 29.9839 55.7285 28.4394 55.7285 26.5342C55.7285 24.6289 54.184 23.0844 52.2788 23.0844C50.3735 23.0844 48.829 24.6289 48.829 26.5342C48.829 28.4394 50.3735 29.9839 52.2788 29.9839ZM52.2788 33.0839C55.8961 33.0839 58.8285 30.1515 58.8285 26.5342C58.8285 22.9168 55.8961 19.9844 52.2788 19.9844C48.6614 19.9844 45.729 22.9168 45.729 26.5342C45.729 30.1515 48.6614 33.0839 52.2788 33.0839Z" fill="#3275EE"/>
<path fill-rule="evenodd" clip-rule="evenodd" d="M25.8214 48.902V41.0857C25.8214 37.5728 22.9736 34.725 19.4607 34.725C15.9478 34.725 13.1 37.5728 13.1 41.0857V48.902H25.8214ZM19.4607 31.625C14.2357 31.625 10 35.8607 10 41.0857V50.002C10 51.1065 10.8954 52.002 12 52.002H26.9214C28.026 52.002 28.9214 51.1065 28.9214 50.002V41.0857C28.9214 35.8607 24.6857 31.625 19.4607 31.625Z" fill="#3275EE"/>
<path fill-rule="evenodd" clip-rule="evenodd" d="M19.4604 29.9839C21.3656 29.9839 22.9101 28.4394 22.9101 26.5342C22.9101 24.6289 21.3656 23.0844 19.4604 23.0844C17.5552 23.0844 16.0106 24.6289 16.0106 26.5342C16.0106 28.4394 17.5552 29.9839 19.4604 29.9839ZM19.4604 33.0839C23.0777 33.0839 26.0101 30.1515 26.0101 26.5342C26.0101 22.9168 23.0777 19.9844 19.4604 19.9844C15.8431 19.9844 12.9106 22.9168 12.9106 26.5342C12.9106 30.1515 15.8431 33.0839 19.4604 33.0839Z" fill="#3275EE"/>
<path d="M24.6035 42.0476C24.6035 35.847 29.6301 30.8203 35.8308 30.8203C42.0314 30.8203 47.058 35.847 47.058 42.0476V53.0022C47.058 54.1067 46.1626 55.0022 45.058 55.0022H26.6035C25.4989 55.0022 24.6035 54.1067 24.6035 53.0022V42.0476Z" fill="white"/>
<path fill-rule="evenodd" clip-rule="evenodd" d="M43.958 51.9022V42.0476C43.958 37.5591 40.3193 33.9203 35.8308 33.9203C31.3422 33.9203 27.7035 37.5591 27.7035 42.0476V51.9022H43.958ZM35.8308 30.8203C29.6301 30.8203 24.6035 35.847 24.6035 42.0476V53.0022C24.6035 54.1067 25.4989 55.0022 26.6035 55.0022H45.058C46.1626 55.0022 47.058 54.1067 47.058 53.0022V42.0476C47.058 35.847 42.0314 30.8203 35.8308 30.8203Z" fill="#3275EE"/>
<path d="M43.6031 24.7727C43.6031 29.0655 40.1231 32.5455 35.8303 32.5455C31.5376 32.5455 28.0576 29.0655 28.0576 24.7727C28.0576 20.48 31.5376 17 35.8303 17C40.1231 17 43.6031 20.48 43.6031 24.7727Z" fill="white"/>
<path fill-rule="evenodd" clip-rule="evenodd" d="M35.8303 29.4455C38.411 29.4455 40.5031 27.3534 40.5031 24.7727C40.5031 22.1921 38.411 20.1 35.8303 20.1C33.2497 20.1 31.1576 22.1921 31.1576 24.7727C31.1576 27.3534 33.2497 29.4455 35.8303 29.4455ZM35.8303 32.5455C40.1231 32.5455 43.6031 29.0655 43.6031 24.7727C43.6031 20.48 40.1231 17 35.8303 17C31.5376 17 28.0576 20.48 28.0576 24.7727C28.0576 29.0655 31.5376 32.5455 35.8303 32.5455Z" fill="#3275EE"/>
</svg>
