<svg width="72" height="72" viewBox="0 0 72 72" fill="none" xmlns="http://www.w3.org/2000/svg">
<g clip-path="url(#clip0)">
<path fill-rule="evenodd" clip-rule="evenodd" d="M43.9017 0.00390625H14.0272C11.9902 0.00390625 10.3389 1.73774 10.3389 3.87653V68.4203C10.3389 70.5591 11.9902 72.293 14.0272 72.293H58.2858C60.3227 72.293 61.974 70.5591 61.974 68.4203V16.7853L43.9017 0.00390625ZM55.7528 15.2362L45.4508 5.67011V12.9127C45.4508 14.1959 46.4911 15.2362 47.7744 15.2362H55.7528ZM42.3527 3.10201H14.0272C13.842 3.10201 13.437 3.3046 13.437 3.87653V68.4203C13.437 68.9923 13.842 69.1949 14.0272 69.1949H58.2858C58.471 69.1949 58.8759 68.9923 58.8759 68.4203V18.3343H47.7744C44.78 18.3343 42.3527 15.907 42.3527 12.9127V3.10201ZM18.6251 40.0211C18.6251 39.1655 19.3187 38.472 20.1742 38.472H50.9093C51.7649 38.472 52.4584 39.1655 52.4584 40.0211C52.4584 40.8766 51.7649 41.5701 50.9093 41.5701H20.1742C19.3187 41.5701 18.6251 40.8766 18.6251 40.0211ZM18.6251 47.7663C18.6251 46.9108 19.3187 46.2173 20.1742 46.2173H36.1565C37.012 46.2173 37.7055 46.9108 37.7055 47.7663C37.7055 48.6218 37.012 49.3154 36.1565 49.3154H20.1742C19.3187 49.3154 18.6251 48.6218 18.6251 47.7663ZM20.0205 55.2534C20.876 55.2534 21.5696 55.9469 21.5696 56.8024V61.7078H25.8295C26.685 61.7078 27.3785 62.4013 27.3785 63.2568C27.3785 64.1123 26.685 64.8059 25.8295 64.8059H21.3114C19.7429 64.8059 18.4715 63.5344 18.4715 61.966V56.8024C18.4715 55.9469 19.165 55.2534 20.0205 55.2534ZM18.6251 32.2758C18.6251 31.4203 19.3187 30.7268 20.1742 30.7268H50.9093C51.7649 30.7268 52.4584 31.4203 52.4584 32.2758C52.4584 33.1313 51.7649 33.8249 50.9093 33.8249H20.1742C19.3187 33.8249 18.6251 33.1313 18.6251 32.2758ZM18.6251 24.5305C18.6251 23.675 19.3187 22.9815 20.1742 22.9815H50.9093C51.7649 22.9815 52.4584 23.675 52.4584 24.5305C52.4584 25.3861 51.7649 26.0796 50.9093 26.0796H20.1742C19.3187 26.0796 18.6251 25.3861 18.6251 24.5305Z" fill="#3275EE"/>
<path d="M46.5698 66.3581C46.4321 66.3581 46.3151 66.3099 46.2187 66.2136C46.1223 66.1309 46.0741 66.0139 46.0741 65.8624V64.4167C45.0827 64.3203 44.229 64.0862 43.513 63.7144C42.8108 63.3289 42.2737 62.8607 41.902 62.3099C41.544 61.7454 41.3512 61.1464 41.3237 60.513C41.3237 60.3891 41.365 60.2859 41.4476 60.2032C41.544 60.1206 41.6541 60.0793 41.7781 60.0793H43.6163C43.7677 60.0793 43.8848 60.1137 43.9674 60.1826C44.0638 60.2377 44.1533 60.334 44.2359 60.4717C44.3873 60.9399 44.704 61.3323 45.186 61.649C45.6817 61.9657 46.3632 62.1241 47.2307 62.1241C48.1946 62.1241 48.9243 61.9657 49.42 61.649C49.9157 61.3186 50.1636 60.8642 50.1636 60.2858C50.1636 59.9003 50.0397 59.5836 49.7918 59.3358C49.544 59.0879 49.1653 58.8745 48.6558 58.6955C48.1464 58.5027 47.3959 58.2824 46.4046 58.0346C44.7798 57.649 43.5887 57.1396 42.8314 56.5062C42.0879 55.859 41.7161 54.9433 41.7161 53.7592C41.7161 52.6852 42.1016 51.7833 42.8727 51.0535C43.6576 50.31 44.7247 49.8556 46.0741 49.6903V48.2652C46.0741 48.1137 46.1223 47.9967 46.2187 47.9141C46.3151 47.8177 46.4321 47.7695 46.5698 47.7695H47.8297C47.9674 47.7695 48.0844 47.8177 48.1808 47.9141C48.2772 48.0105 48.3254 48.1275 48.3254 48.2652V49.7316C49.2204 49.8556 49.9846 50.1241 50.618 50.5372C51.2651 50.9365 51.7539 51.4046 52.0844 51.9416C52.4286 52.4786 52.6145 53.0019 52.6421 53.5113C52.6421 53.6353 52.6008 53.7385 52.5181 53.8211C52.4355 53.9038 52.3323 53.9451 52.2083 53.9451H50.2875C49.9846 53.9451 49.778 53.8143 49.6679 53.5526C49.599 53.112 49.3305 52.7471 48.8624 52.458C48.3942 52.1551 47.809 52.0036 47.1068 52.0036C46.3495 52.0036 45.7505 52.1482 45.3099 52.4373C44.8693 52.7265 44.649 53.1464 44.649 53.6972C44.649 54.0828 44.7591 54.3995 44.9794 54.6473C45.1997 54.8952 45.544 55.1155 46.0121 55.3082C46.4941 55.501 47.1825 55.7144 48.0775 55.9485C49.2892 56.2239 50.2531 56.5337 50.9691 56.8779C51.6989 57.2222 52.2359 57.6559 52.5801 58.1791C52.9243 58.7024 53.0965 59.3702 53.0965 60.1826C53.0965 61.3667 52.6696 62.3375 51.8159 63.0948C50.9622 63.8383 49.7987 64.2858 48.3254 64.4373V65.8624C48.3254 66.0001 48.2772 66.1172 48.1808 66.2136C48.0844 66.3099 47.9674 66.3581 47.8297 66.3581H46.5698Z" fill="#3275EE"/>
</g>
<defs>
<clipPath id="clip0">
<rect width="72" height="72" fill="white"/>
</clipPath>
</defs>
</svg>
