<svg width="72" height="72" viewBox="0 0 72 72" fill="none" xmlns="http://www.w3.org/2000/svg">
<path d="M11 8.67187C11 7.01502 12.3431 5.67188 14 5.67188H58C59.6569 5.67188 61 7.01502 61 8.67188V66.6719C61 68.3287 59.6569 69.6719 58 69.6719H14C12.3431 69.6719 11 68.3287 11 66.6719V8.67187Z" fill="white"/>
<path fill-rule="evenodd" clip-rule="evenodd" d="M14.1 8.77186V66.5719H57.9V8.77186H14.1ZM14 5.67188C12.3431 5.67188 11 7.01502 11 8.67187V66.6719C11 68.3287 12.3431 69.6719 14 69.6719H58C59.6569 69.6719 61 68.3287 61 66.6719V8.67188C61 7.01502 59.6569 5.67188 58 5.67188H14Z" fill="#3275EE"/>
<path fill-rule="evenodd" clip-rule="evenodd" d="M24 54.4494C24 53.5934 24.694 52.8994 25.55 52.8994H36.45C37.306 52.8994 38 53.5934 38 54.4494C38 55.3055 37.306 55.9994 36.45 55.9994H25.55C24.694 55.9994 24 55.3055 24 54.4494Z" fill="#3275EE"/>
<path fill-rule="evenodd" clip-rule="evenodd" d="M24 30.4494C24 29.5934 24.694 28.8994 25.55 28.8994H48.45C49.306 28.8994 50 29.5934 50 30.4494C50 31.3055 49.306 31.9994 48.45 31.9994H25.55C24.694 31.9994 24 31.3055 24 30.4494Z" fill="#3275EE"/>
<path fill-rule="evenodd" clip-rule="evenodd" d="M18.8999 30.4494C18.8999 29.5934 19.5939 28.8994 20.4499 28.8994H20.5499C21.406 28.8994 22.0999 29.5934 22.0999 30.4494C22.0999 31.3055 21.406 31.9994 20.5499 31.9994H20.4499C19.5939 31.9994 18.8999 31.3055 18.8999 30.4494Z" fill="#3275EE"/>
<path fill-rule="evenodd" clip-rule="evenodd" d="M18.8999 38.4494C18.8999 37.5934 19.5939 36.8994 20.4499 36.8994H20.5499C21.406 36.8994 22.0999 37.5934 22.0999 38.4494C22.0999 39.3055 21.406 39.9994 20.5499 39.9994H20.4499C19.5939 39.9994 18.8999 39.3055 18.8999 38.4494Z" fill="#3275EE"/>
<path fill-rule="evenodd" clip-rule="evenodd" d="M18.8999 46.4494C18.8999 45.5934 19.5939 44.8994 20.4499 44.8994H20.5499C21.406 44.8994 22.0999 45.5934 22.0999 46.4494C22.0999 47.3055 21.406 47.9994 20.5499 47.9994H20.4499C19.5939 47.9994 18.8999 47.3055 18.8999 46.4494Z" fill="#3275EE"/>
<path fill-rule="evenodd" clip-rule="evenodd" d="M18.8999 54.4494C18.8999 53.5934 19.5939 52.8994 20.4499 52.8994H20.5499C21.406 52.8994 22.0999 53.5934 22.0999 54.4494C22.0999 55.3055 21.406 55.9994 20.5499 55.9994H20.4499C19.5939 55.9994 18.8999 55.3055 18.8999 54.4494Z" fill="#3275EE"/>
<path fill-rule="evenodd" clip-rule="evenodd" d="M18.8999 22.4494C18.8999 21.5934 19.5939 20.8994 20.4499 20.8994H20.5499C21.406 20.8994 22.0999 21.5934 22.0999 22.4494C22.0999 23.3055 21.406 23.9994 20.5499 23.9994H20.4499C19.5939 23.9994 18.8999 23.3055 18.8999 22.4494Z" fill="#3275EE"/>
<path fill-rule="evenodd" clip-rule="evenodd" d="M24 38.4494C24 37.5934 24.694 36.8994 25.55 36.8994H48.45C49.306 36.8994 50 37.5934 50 38.4494C50 39.3055 49.306 39.9994 48.45 39.9994H25.55C24.694 39.9994 24 39.3055 24 38.4494Z" fill="#3275EE"/>
<path fill-rule="evenodd" clip-rule="evenodd" d="M24 46.4494C24 45.5934 24.694 44.8994 25.55 44.8994H48.45C49.306 44.8994 50 45.5934 50 46.4494C50 47.3055 49.306 47.9994 48.45 47.9994H25.55C24.694 47.9994 24 47.3055 24 46.4494Z" fill="#3275EE"/>
<path fill-rule="evenodd" clip-rule="evenodd" d="M24 22.4494C24 21.5934 24.694 20.8994 25.55 20.8994H48.45C49.306 20.8994 50 21.5934 50 22.4494C50 23.3055 49.306 23.9994 48.45 23.9994H25.55C24.694 23.9994 24 23.3055 24 22.4494Z" fill="#3275EE"/>
<path d="M24.2573 6.00001C24.2573 4.34315 25.6005 3 27.2573 3H45.121C46.7778 3 48.121 4.34315 48.121 6.00001V10.6666C48.121 12.3235 46.7778 13.6666 45.121 13.6666H27.2573C25.6005 13.6666 24.2573 12.3235 24.2573 10.6666V6.00001Z" fill="white"/>
<path fill-rule="evenodd" clip-rule="evenodd" d="M22.7075 6.00313C22.7075 3.49023 24.7446 1.45312 27.2575 1.45312H45.1211C47.634 1.45312 49.6711 3.49023 49.6711 6.00313V10.6698C49.6711 13.1827 47.634 15.2198 45.1211 15.2198H27.2575C24.7446 15.2198 22.7075 13.1827 22.7075 10.6698V6.00313ZM27.2575 4.55313C26.4567 4.55313 25.8075 5.20231 25.8075 6.00313V10.6698C25.8075 11.4706 26.4567 12.1198 27.2575 12.1198H45.1211C45.9219 12.1198 46.5711 11.4706 46.5711 10.6698V6.00313C46.5711 5.20231 45.9219 4.55313 45.1211 4.55313H27.2575Z" fill="#3275EE"/>
</svg>
