<svg width="64" height="64" viewBox="0 0 64 64" fill="none" xmlns="http://www.w3.org/2000/svg">
<circle cx="32" cy="32" r="32" fill="#F9F9F9"/>
<g clip-path="url(#clip0)">
<path d="M29.5569 45.1241C38.2451 45.1241 45.2882 38.1165 45.2882 29.4722C45.2882 20.8279 38.2451 13.8203 29.5569 13.8203C20.8688 13.8203 13.8257 20.8279 13.8257 29.4722C13.8257 38.1165 20.8688 45.1241 29.5569 45.1241Z" stroke="#3275EE" stroke-width="1.57"/>
<path d="M36.0946 29.4722C36.1784 33.3446 35.4762 37.194 34.0301 40.79C33.53 42.0064 32.7986 43.1153 31.8762 44.056C31.2794 44.6967 30.4546 45.08 29.5777 45.1241C28.703 45.0797 27.8804 44.6963 27.2862 44.056C26.3616 43.1171 25.6299 42.0077 25.1323 40.79C23.6828 37.1949 22.9805 33.3448 23.0678 29.4722C22.9805 25.6018 23.6828 21.754 25.1323 18.1612C25.6318 16.9425 26.3631 15.8312 27.2862 14.8884C27.8754 14.2529 28.6896 13.87 29.5571 13.8203C30.434 13.8644 31.2588 14.2477 31.8555 14.8884C32.7763 15.833 33.5074 16.9438 34.0095 18.1612C35.4628 21.7534 36.1721 25.6006 36.0946 29.4722V29.4722Z" stroke="#3275EE" stroke-width="1.57"/>
<path d="M13 29.1641H46.121" stroke="#3275EE" stroke-width="1.57"/>
<path d="M15.9248 38.462C20.1914 36.7982 31.5666 34.4703 42.9418 38.462" stroke="#3275EE" stroke-width="1.57"/>
<path d="M43.1893 20.4893C38.9228 22.153 27.5544 24.481 16.1792 20.4893" stroke="#3275EE" stroke-width="1.57"/>
<path d="M34.3329 46.2692C33.9623 46.2729 33.6051 46.1314 33.3385 45.8751C33.072 45.6189 32.9175 45.2685 32.9084 44.8999C32.9084 43.4894 33.631 43.1197 34.2848 43.0581C33.9477 43.053 33.6235 42.928 33.371 42.7057C33.1186 42.4834 32.9545 42.1785 32.9084 41.8462L31.2225 30.4393L29.158 30.0011C28.9728 29.9643 28.7972 29.8901 28.6421 29.7829C28.487 29.6757 28.3558 29.5379 28.2565 29.378C28.1589 29.225 28.0929 29.0542 28.0622 28.8755C28.0315 28.6969 28.0367 28.5139 28.0776 28.3373V28.2209C28.1395 27.8512 28.2909 26.8516 29.8186 26.8516H29.8874L32.9222 27.4541C33.865 27.5568 34.1058 29.1658 34.1127 29.2343L34.9247 32.8562H48.8186C49.0667 32.8461 49.3136 32.8963 49.5378 33.0025C49.7621 33.1087 49.9569 33.2676 50.1055 33.4656C50.2167 33.626 50.2857 33.8116 50.3062 34.0054C50.3266 34.1992 50.2978 34.395 50.2225 34.5748L47.8483 40.6411C47.7745 40.8329 47.6582 41.0058 47.5081 41.1468C47.358 41.2878 47.1779 41.3935 46.9812 41.4559C47.3814 41.7766 47.6787 42.2067 47.8364 42.6933C47.9941 43.1799 48.0054 43.7017 47.869 44.1946C47.7052 44.7929 47.3456 45.3198 46.8471 45.6918C46.3485 46.0638 45.7395 46.2598 45.1163 46.2487L34.3329 46.2692ZM34.4155 43.0307H34.3054H43.451L42.2811 42.031L34.4155 43.0307ZM35.8538 39.7031L45.4879 38.6281L46.3688 36.0469H35.3032L35.8538 39.7031Z" fill="#3275EE"/>
<path d="M29.8529 27.5483L32.8671 28.144C33.163 28.144 33.4245 29.0546 33.4657 29.3422L34.3672 33.5393H48.8185C49.3346 33.5393 49.7613 33.868 49.5824 34.3267L47.2082 40.3862C47.1574 40.5068 47.0751 40.6116 46.9699 40.6899C46.8646 40.7681 46.7402 40.8169 46.6095 40.8312L44.9924 41.0709L46.2586 41.824C46.6406 42.0627 46.9335 42.4193 47.0925 42.8394C47.2515 43.2594 47.2679 43.7196 47.1391 44.1498C47.0104 44.5799 46.7436 44.9563 46.3795 45.2213C46.0154 45.4863 45.5741 45.6253 45.1231 45.6172H34.3328C34.2385 45.6238 34.1438 45.6109 34.0547 45.5795C33.9655 45.548 33.8839 45.4986 33.8148 45.4344C33.7457 45.3701 33.6906 45.2924 33.6531 45.2061C33.6155 45.1197 33.5963 45.0266 33.5965 44.9325C33.6447 44.4943 33.6447 43.8096 34.3328 43.7206H45.1231C45.2057 43.7206 45.1919 43.4741 44.607 43.1249L42.5012 41.3242L34.3328 42.3512H34.264C34.0878 42.3547 33.9164 42.294 33.7821 42.1805C33.6477 42.067 33.5597 41.9086 33.5346 41.735L31.8417 29.8694L29.3162 29.3285C29.2235 29.3124 29.1351 29.2776 29.0565 29.2261C28.9778 29.1747 28.9107 29.1078 28.8591 29.0295C28.8075 28.9512 28.7726 28.8632 28.7565 28.771C28.7404 28.6787 28.7435 28.5842 28.7656 28.4932C28.8482 28.1166 28.7656 27.5483 29.8529 27.5483ZM35.2756 40.4273L45.9833 39.2291L47.3183 35.3332H34.5049L35.2756 40.4273ZM29.9906 26.179H29.8529C29.2777 26.1213 28.7029 26.2918 28.2532 26.6533C27.8036 27.0148 27.5154 27.5381 27.4513 28.1098C27.4513 28.1098 27.4513 28.1646 27.4513 28.1851C27.3871 28.4483 27.3773 28.7217 27.4222 28.9888C27.4671 29.2559 27.566 29.5112 27.7128 29.7393C28.0201 30.2127 28.502 30.5471 29.0547 30.6705L30.6374 31.006L32.1995 41.961C32.2521 42.3993 32.4479 42.8082 32.7569 43.1249C32.4006 43.6405 32.2286 44.2601 32.2684 44.8846C32.2683 45.1584 32.3232 45.4295 32.43 45.6818C32.5367 45.9342 32.6931 46.1628 32.89 46.3542C33.0868 46.5456 33.3201 46.6959 33.5762 46.7962C33.8322 46.8966 34.1059 46.945 34.381 46.9386H45.1231C45.8992 46.9574 46.6593 46.7176 47.2827 46.2574C47.9061 45.7971 48.357 45.1429 48.5639 44.3984C48.6977 43.9197 48.722 43.4172 48.6351 42.9279C48.5481 42.4385 48.3522 41.9748 48.0615 41.5707C48.2577 41.3752 48.4121 41.1423 48.5157 40.886L50.8486 34.8265C50.9643 34.5428 51.0079 34.235 50.9754 33.9304C50.943 33.6259 50.8356 33.334 50.6628 33.0806C50.4516 32.7925 50.1737 32.5593 49.8526 32.4008C49.5316 32.2423 49.1769 32.1631 48.8185 32.17H35.482L34.7939 29.0957C34.7251 28.6986 34.3604 26.939 33.0253 26.7883L30.0938 26.2064H29.963L29.9906 26.179ZM36.1014 36.7026H45.3915L44.9648 37.9692L36.4386 38.921L36.1014 36.7026Z" fill="#F9F9F9"/>
<path d="M35.9567 50.6563C35.5019 50.6402 35.0619 50.4912 34.6916 50.2281C34.3212 49.965 34.0369 49.5992 33.8739 49.1764C33.711 48.7537 33.6767 48.2925 33.7753 47.8505C33.8739 47.4084 34.101 47.005 34.4284 46.6905C34.7558 46.376 35.1689 46.1642 35.6164 46.0817C36.0638 45.9991 36.5258 46.0493 36.9448 46.2261C37.3638 46.4029 37.7212 46.6985 37.9726 47.0759C38.2239 47.4534 38.3581 47.8961 38.3584 48.3489C38.3457 48.9712 38.086 49.5632 37.636 49.9956C37.186 50.4279 36.5822 50.6655 35.9567 50.6563ZM35.9567 48.1298C35.9122 48.1325 35.8695 48.1482 35.8339 48.1749C35.7983 48.2016 35.7713 48.2382 35.7565 48.28C35.7416 48.3218 35.7395 48.3671 35.7503 48.4102C35.7611 48.4532 35.7844 48.4921 35.8173 48.5221C35.8503 48.552 35.8913 48.5717 35.9354 48.5785C35.9794 48.5854 36.0246 48.5792 36.0651 48.5608C36.1057 48.5423 36.1398 48.5124 36.1634 48.4747C36.187 48.437 36.1988 48.3932 36.1976 48.3489C36.1924 48.289 36.1648 48.2332 36.1201 48.1926C36.0755 48.152 36.0172 48.1296 35.9567 48.1298Z" fill="#3275EE"/>
<path d="M35.957 46.3922C36.3436 46.4096 36.7166 46.5397 37.0295 46.7662C37.3425 46.9928 37.5816 47.3058 37.7173 47.6664C37.8529 48.0271 37.8791 48.4194 37.7925 48.7947C37.7059 49.17 37.5104 49.5118 37.2303 49.7775C36.9502 50.0432 36.5978 50.2211 36.2169 50.2892C35.836 50.3573 35.4433 50.3126 35.0878 50.1606C34.7322 50.0085 34.4293 49.7559 34.2169 49.4341C34.0044 49.1123 33.8916 48.7354 33.8925 48.3503C33.8988 48.0869 33.9571 47.8272 34.0643 47.5862C34.1714 47.3452 34.3253 47.1275 34.517 46.9457C34.7087 46.7638 34.9346 46.6213 35.1816 46.5264C35.4287 46.4314 35.6922 46.3858 35.957 46.3922ZM35.957 48.9186C36.069 48.9146 36.1773 48.8779 36.2685 48.813C36.3597 48.7482 36.4297 48.6581 36.4697 48.554C36.5098 48.4498 36.5182 48.3363 36.4939 48.2274C36.4696 48.1186 36.4136 48.0192 36.333 47.9418C36.2524 47.8644 36.1506 47.8123 36.0404 47.7919C35.9302 47.7716 35.8164 47.784 35.7133 47.8276C35.6101 47.8711 35.5221 47.9439 35.4602 48.0369C35.3983 48.1298 35.3653 48.2388 35.3652 48.3503C35.3661 48.4265 35.3821 48.5016 35.4125 48.5715C35.4428 48.6414 35.4867 48.7046 35.5418 48.7575C35.5968 48.8104 35.6619 48.8518 35.7332 48.8795C35.8044 48.9071 35.8805 48.9205 35.957 48.9186ZM35.957 45.7075C35.4342 45.725 34.9281 45.8953 34.5019 46.1971C34.0757 46.499 33.7484 46.9191 33.5606 47.4049C33.3729 47.8908 33.3332 48.4209 33.4464 48.9291C33.5596 49.4372 33.8207 49.901 34.1972 50.2624C34.5736 50.6238 35.0487 50.867 35.5632 50.9614C36.0776 51.0559 36.6086 50.9975 37.09 50.7936C37.5713 50.5896 37.9816 50.2491 38.2696 49.8146C38.5576 49.3801 38.7107 48.8709 38.7096 48.3503C38.7034 47.997 38.6272 47.6483 38.4854 47.3242C38.3437 47.0001 38.1392 46.707 37.8836 46.4616C37.628 46.2161 37.3262 46.0232 36.9957 45.8938C36.6651 45.7644 36.3122 45.7011 35.957 45.7075Z" fill="#F9F9F9"/>
<path d="M43.0451 50.6565C42.5906 50.6391 42.1513 50.489 41.7819 50.2251C41.4125 49.9612 41.1292 49.595 40.9673 49.1722C40.8054 48.7493 40.7721 48.2885 40.8714 47.8469C40.9708 47.4053 41.1984 47.0026 41.526 46.6887C41.8536 46.3749 42.2667 46.1638 42.714 46.0817C43.1612 45.9997 43.6229 46.0503 44.0414 46.2272C44.46 46.4042 44.817 46.6997 45.0681 47.0769C45.3192 47.4542 45.4533 47.8966 45.4536 48.3491C45.4409 48.9726 45.1803 49.5657 44.7288 49.9982C44.2772 50.4308 43.6717 50.6675 43.0451 50.6565ZM43.0451 48.13C43.0124 48.1243 42.9789 48.1258 42.9469 48.1343C42.9148 48.1429 42.8851 48.1583 42.8597 48.1795C42.8343 48.2007 42.8139 48.2272 42.7999 48.2571C42.7858 48.287 42.7786 48.3196 42.7786 48.3525C42.7786 48.3855 42.7858 48.4181 42.7999 48.448C42.8139 48.4779 42.8343 48.5044 42.8597 48.5256C42.8851 48.5468 42.9148 48.5622 42.9469 48.5708C42.9789 48.5793 43.0124 48.5808 43.0451 48.5751C43.0777 48.5808 43.1112 48.5793 43.1433 48.5708C43.1753 48.5622 43.205 48.5468 43.2304 48.5256C43.2558 48.5044 43.2762 48.4779 43.2903 48.448C43.3043 48.4181 43.3115 48.3855 43.3115 48.3525C43.3115 48.3196 43.3043 48.287 43.2903 48.2571C43.2762 48.2272 43.2558 48.2007 43.2304 48.1795C43.205 48.1583 43.1753 48.1429 43.1433 48.1343C43.1112 48.1258 43.0777 48.1243 43.0451 48.13Z" fill="#3275EE"/>
<path d="M43.0449 46.3922C43.4315 46.4096 43.8045 46.5397 44.1174 46.7662C44.4304 46.9928 44.6695 47.3058 44.8052 47.6664C44.9408 48.0271 44.967 48.4194 44.8804 48.7947C44.7938 49.17 44.5983 49.5118 44.3182 49.7775C44.0381 50.0432 43.6857 50.2211 43.3048 50.2892C42.9239 50.3573 42.5312 50.3126 42.1757 50.1606C41.8201 50.0085 41.5172 49.7559 41.3047 49.4341C41.0922 49.1123 40.9795 48.7354 40.9804 48.3503C40.9867 48.0869 41.045 47.8272 41.1522 47.5862C41.2593 47.3452 41.4132 47.1275 41.6049 46.9457C41.7966 46.7638 42.0225 46.6213 42.2695 46.5264C42.5166 46.4314 42.7801 46.3858 43.0449 46.3922ZM43.0449 48.9186C43.1572 48.9159 43.2663 48.8803 43.3584 48.8163C43.4505 48.7522 43.5215 48.6626 43.5627 48.5585C43.6038 48.4545 43.6132 48.3406 43.5896 48.2313C43.566 48.122 43.5106 48.022 43.4302 47.9439C43.3498 47.8658 43.248 47.813 43.1376 47.7922C43.0272 47.7713 42.9131 47.7834 42.8095 47.8268C42.7059 47.8701 42.6175 47.943 42.5553 48.0361C42.4932 48.1292 42.46 48.2385 42.46 48.3503C42.4609 48.4259 42.4767 48.5005 42.5066 48.5699C42.5365 48.6394 42.5798 48.7023 42.6341 48.755C42.6884 48.8078 42.7527 48.8494 42.8232 48.8775C42.8936 48.9056 42.969 48.9195 43.0449 48.9186ZM43.0449 45.7075C42.522 45.725 42.016 45.8953 41.5898 46.1971C41.1636 46.499 40.8362 46.9191 40.6485 47.4049C40.4608 47.8908 40.4211 48.4209 40.5343 48.9291C40.6475 49.4372 40.9086 49.901 41.2851 50.2624C41.6615 50.6238 42.1366 50.867 42.6511 50.9614C43.1655 51.0559 43.6965 50.9975 44.1779 50.7936C44.6592 50.5896 45.0694 50.2491 45.3575 49.8146C45.6455 49.3801 45.7986 48.8709 45.7975 48.3503C45.7912 47.997 45.7151 47.6483 45.5733 47.3242C45.4316 47.0001 45.2271 46.707 44.9715 46.4616C44.7158 46.2161 44.4141 46.0232 44.0836 45.8938C43.753 45.7644 43.4001 45.7011 43.0449 45.7075Z" fill="#F9F9F9"/>
<path d="M35.0415 35.7305L35.9568 39.8591L45.1092 38.8732L46.4374 35.7305H35.0415Z" fill="#F9F9F9"/>
</g>
<defs>
<clipPath id="clip0">
<rect width="38" height="38" fill="white" transform="translate(13 13)"/>
</clipPath>
</defs>
</svg>
