<svg width="64" height="64" viewBox="0 0 64 64" fill="none" xmlns="http://www.w3.org/2000/svg">
<circle cx="32" cy="32" r="32" fill="#F9F9F9"/>
<g clip-path="url(#clip0)">
<path fill-rule="evenodd" clip-rule="evenodd" d="M35.921 13.7148H20.8073C19.7768 13.7148 18.9414 14.592 18.9414 15.674V48.3271C18.9414 49.4091 19.7768 50.2863 20.8073 50.2863H43.198C44.2285 50.2863 45.0639 49.4091 45.0639 48.3271V22.2046L35.921 13.7148ZM41.9165 21.421L36.7047 16.5814V20.2455C36.7047 20.8947 37.231 21.421 37.8802 21.421H41.9165ZM35.1373 15.2822H20.8073C20.7136 15.2822 20.5088 15.3847 20.5088 15.674V48.3271C20.5088 48.6164 20.7136 48.7189 20.8073 48.7189H43.198C43.2917 48.7189 43.4965 48.6164 43.4965 48.3271V22.9883H37.8802C36.3653 22.9883 35.1373 21.7603 35.1373 20.2455V15.2822ZM23.1334 33.9597C23.1334 33.5269 23.4843 33.1761 23.9171 33.1761H39.4662C39.899 33.1761 40.2499 33.5269 40.2499 33.9597C40.2499 34.3926 39.899 34.7434 39.4662 34.7434H23.9171C23.4843 34.7434 23.1334 34.3926 23.1334 33.9597ZM23.1334 37.8781C23.1334 37.4453 23.4843 37.0944 23.9171 37.0944H32.0026C32.4354 37.0944 32.7863 37.4453 32.7863 37.8781C32.7863 38.3109 32.4354 38.6618 32.0026 38.6618H23.9171C23.4843 38.6618 23.1334 38.3109 23.1334 37.8781ZM23.8394 41.6659C24.2722 41.6659 24.623 42.0167 24.623 42.4495V44.9312H26.7781C27.211 44.9312 27.5618 45.282 27.5618 45.7148C27.5618 46.1477 27.211 46.4985 26.7781 46.4985H24.4924C23.6989 46.4985 23.0557 45.8553 23.0557 45.0618V42.4495C23.0557 42.0167 23.4066 41.6659 23.8394 41.6659ZM23.1334 30.0414C23.1334 29.6086 23.4843 29.2577 23.9171 29.2577H39.4662C39.899 29.2577 40.2499 29.6086 40.2499 30.0414C40.2499 30.4742 39.899 30.8251 39.4662 30.8251H23.9171C23.4843 30.8251 23.1334 30.4742 23.1334 30.0414ZM23.1334 26.123C23.1334 25.6902 23.4843 25.3393 23.9171 25.3393H39.4662C39.899 25.3393 40.2499 25.6902 40.2499 26.123C40.2499 26.5558 39.899 26.9067 39.4662 26.9067H23.9171C23.4843 26.9067 23.1334 26.5558 23.1334 26.123Z" fill="#3275EE"/>
<path d="M37.2707 47.283C37.2011 47.283 37.1419 47.2586 37.0931 47.2098C37.0443 47.1681 37.02 47.1088 37.02 47.0322V46.3008C36.5184 46.252 36.0865 46.1336 35.7243 45.9455C35.369 45.7505 35.0974 45.5136 34.9093 45.235C34.7282 44.9494 34.6306 44.6464 34.6167 44.3259C34.6167 44.2632 34.6376 44.211 34.6794 44.1692C34.7282 44.1274 34.7839 44.1065 34.8466 44.1065H35.7765C35.8532 44.1065 35.9124 44.1239 35.9542 44.1587C36.0029 44.1866 36.0482 44.2354 36.09 44.305C36.1666 44.5419 36.3268 44.7404 36.5707 44.9006C36.8214 45.0608 37.1663 45.1409 37.6051 45.1409C38.0927 45.1409 38.4619 45.0608 38.7127 44.9006C38.9635 44.7334 39.0889 44.5036 39.0889 44.211C39.0889 44.0159 39.0262 43.8557 38.9008 43.7303C38.7754 43.6049 38.5838 43.497 38.3261 43.4064C38.0683 43.3089 37.6887 43.1974 37.1871 43.0721C36.3652 42.877 35.7626 42.6193 35.3795 42.2988C35.0033 41.9714 34.8152 41.5082 34.8152 40.9091C34.8152 40.3658 35.0103 39.9095 35.4004 39.5403C35.7974 39.1641 36.3373 38.9343 37.02 38.8507V38.1297C37.02 38.0531 37.0443 37.9938 37.0931 37.952C37.1419 37.9033 37.2011 37.8789 37.2707 37.8789H37.9081C37.9778 37.8789 38.037 37.9033 38.0858 37.952C38.1345 38.0008 38.1589 38.06 38.1589 38.1297V38.8716C38.6117 38.9343 38.9983 39.0701 39.3187 39.2791C39.6461 39.4811 39.8934 39.7179 40.0606 39.9896C40.2348 40.2613 40.3288 40.526 40.3427 40.7837C40.3427 40.8464 40.3218 40.8987 40.28 40.9405C40.2383 40.9823 40.186 41.0032 40.1233 41.0032H39.1516C38.9983 41.0032 38.8938 40.937 38.8381 40.8046C38.8033 40.5817 38.6674 40.3971 38.4306 40.2508C38.1937 40.0976 37.8977 40.0209 37.5424 40.0209C37.1593 40.0209 36.8563 40.0941 36.6334 40.2404C36.4104 40.3867 36.299 40.5991 36.299 40.8778C36.299 41.0728 36.3547 41.233 36.4662 41.3584C36.5776 41.4838 36.7518 41.5953 36.9886 41.6928C37.2324 41.7903 37.5807 41.8983 38.0335 42.0167C38.6465 42.156 39.1341 42.3128 39.4964 42.4869C39.8656 42.6611 40.1372 42.8805 40.3114 43.1452C40.4855 43.4099 40.5726 43.7478 40.5726 44.1587C40.5726 44.7578 40.3567 45.2489 39.9248 45.6321C39.4929 46.0082 38.9043 46.2346 38.1589 46.3112V47.0322C38.1589 47.1019 38.1345 47.1611 38.0858 47.2098C38.037 47.2586 37.9778 47.283 37.9081 47.283H37.2707Z" fill="#3275EE"/>
</g>
<defs>
<clipPath id="clip0">
<rect width="36.5714" height="36.5714" fill="white" transform="translate(13.7109 13.7148)"/>
</clipPath>
</defs>
</svg>
