<svg width="64" height="64" viewBox="0 0 64 64" fill="none" xmlns="http://www.w3.org/2000/svg">
<circle cx="32" cy="32" r="32" fill="#F9F9F9"/>
<g clip-path="url(#clip0)">
<path d="M44.0305 27.374H20.1305C19.4735 27.374 18.9409 27.9034 18.9409 28.5564V31.0109C18.9409 31.6639 19.4735 32.1933 20.1305 32.1933H44.0305C44.6875 32.1933 45.2201 31.6639 45.2201 31.0109V28.5564C45.2201 27.9034 44.6875 27.374 44.0305 27.374Z" stroke="#3275EE" stroke-width="1.56735" stroke-miterlimit="10"/>
<path d="M22.6292 27.649C22.0877 26.191 21.9075 24.6248 22.104 23.0829C22.3004 21.541 22.8677 20.0689 23.7578 18.7911C24.6479 17.5133 25.8347 16.4675 27.2176 15.7422C28.6005 15.0169 30.1388 14.6334 31.7024 14.6242C33.266 14.615 34.8088 14.9804 36.2002 15.6894C37.5916 16.3985 38.7907 17.4303 39.6959 18.6975C40.6012 19.9647 41.1859 21.4301 41.4007 22.9695C41.6155 24.509 41.4539 26.0772 40.9298 27.5415" stroke="#3275EE" stroke-width="1.56735" stroke-miterlimit="10"/>
<path d="M22.2769 32.6242L28.4411 41.1401C28.6823 41.4744 28.8125 41.8752 28.8136 42.2867V47.4224C28.8136 47.9451 29.0225 48.4463 29.3943 48.8159C29.7661 49.1855 30.2704 49.3931 30.7963 49.3931H32.5987C32.8591 49.3931 33.1169 49.3421 33.3574 49.2431C33.598 49.1441 33.8165 48.9989 34.0006 48.8159C34.1847 48.6329 34.3308 48.4157 34.4304 48.1766C34.5301 47.9375 34.5813 47.6812 34.5813 47.4224V42.1672C34.5783 41.7376 34.7153 41.3186 34.9719 40.9729L41.2503 32.6123" stroke="#3275EE" stroke-width="1.56735" stroke-miterlimit="10"/>
<path d="M32.9566 26.775C32.9582 26.6441 32.9235 26.5156 32.8571 26.4058C32.7906 26.296 32.6953 26.2099 32.5833 26.1583C32.2122 26.0289 31.8287 25.9448 31.44 25.9076C30.9371 25.822 30.4399 25.7014 29.9514 25.5466C29.5612 25.4191 29.2088 25.184 28.9295 24.8646C28.6206 24.4809 28.4647 23.982 28.4955 23.4757C28.4883 22.9933 28.6312 22.5222 28.9015 22.1369C29.2058 21.7178 29.6155 21.4012 30.0821 21.2244C30.6713 20.9961 31.2944 20.8857 31.9207 20.8985C32.5072 20.9071 33.0916 20.9759 33.6659 21.104C33.8872 21.1546 34.1054 21.22 34.3192 21.2996C34.4029 21.3334 34.4792 21.3855 34.5433 21.4525C34.6074 21.5195 34.6579 21.6 34.6917 21.689C34.7254 21.778 34.7417 21.8735 34.7394 21.9696C34.7371 22.0657 34.7164 22.1602 34.6785 22.2473L34.5105 22.6283C34.4376 22.7886 34.311 22.9133 34.1561 22.9775C34.0012 23.0416 33.8294 23.0405 33.6752 22.9743C33.1117 22.7595 32.5186 22.6476 31.9207 22.6434C31.4187 22.6273 30.9176 22.6984 30.4368 22.854C30.3383 22.8984 30.2536 22.9719 30.1925 23.066C30.1314 23.1601 30.0963 23.2709 30.0914 23.3855C30.0935 23.5016 30.1312 23.6137 30.1987 23.7044C30.2662 23.7951 30.3598 23.8592 30.4648 23.8869C31.0055 24.0129 31.5523 24.1066 32.1027 24.1677C32.6035 24.2517 33.0991 24.369 33.5866 24.5187C33.9734 24.6394 34.322 24.8718 34.5945 25.1905C34.8965 25.6398 35.0464 26.1865 35.0192 26.7399" fill="#3275EE"/>
<path d="M32.4077 20.3806C32.4077 19.9455 32.1153 19.5928 31.7546 19.5928C31.3939 19.5928 31.1016 19.9455 31.1016 20.3806V21.4172C31.1016 21.8523 31.3939 22.205 31.7546 22.205C32.1153 22.205 32.4077 21.8523 32.4077 21.4172V20.3806Z" fill="#3275EE"/>
</g>
<defs>
<clipPath id="clip0">
<rect width="36.5714" height="36.5714" fill="white" transform="translate(13.7144 13.7139)"/>
</clipPath>
</defs>
</svg>
