<svg width="67" height="68" viewBox="0 0 67 68" fill="none" xmlns="http://www.w3.org/2000/svg">
<rect width="48.9259" height="49.5337" rx="2" transform="matrix(0.964991 -0.262281 0.255396 0.966837 0 13.832)" fill="#3275EE"/>
<rect width="43.056" height="33.167" rx="2" transform="matrix(0.964991 -0.262281 0.255396 0.966837 3.63672 16.0996)" fill="white"/>
<rect x="-0.985229" y="-1.88839" width="51.9421" height="52.5178" rx="3.5" transform="matrix(0.952761 0.303722 -0.295941 0.955206 16.7657 3.04863)" fill="white" stroke="#3275EE" stroke-width="3"/>
<rect width="41.6914" height="32.0948" rx="2" transform="matrix(0.952761 0.303722 -0.295941 0.955206 19.7422 7.4375)" fill="white"/>
<path d="M16.717 32.7768C16.6161 32.7423 16.5423 32.6776 16.4958 32.5828C16.4493 32.488 16.4434 32.3901 16.4779 32.2892L19.8528 22.4182C19.8908 22.3072 19.9554 22.2335 20.0468 22.1971C20.1416 22.1506 20.2395 22.1446 20.3404 22.1791L21.7484 22.6605C21.8594 22.6984 21.9331 22.7631 21.9695 22.8545C22.0195 22.9392 22.0255 23.037 21.9875 23.1481L19.1043 31.5808L23.9035 33.2217C24.0145 33.2596 24.0933 33.326 24.1398 33.4208C24.1863 33.5156 24.1906 33.6186 24.1526 33.7296L23.7903 34.7893C23.7523 34.9004 23.6859 34.9791 23.5911 35.0256C23.4998 35.062 23.3986 35.0612 23.2875 35.0233L16.717 32.7768ZM25.4991 35.7794C25.3982 35.7449 25.3245 35.6803 25.278 35.5855C25.2315 35.4907 25.2255 35.3928 25.26 35.2919L28.6349 25.4209C28.6729 25.3098 28.7376 25.2361 28.8289 25.1997C28.9237 25.1532 29.0216 25.1472 29.1225 25.1817L30.5456 25.6683C30.6567 25.7063 30.7304 25.7709 30.7668 25.8623C30.8167 25.947 30.8227 26.0449 30.7848 26.1559L27.4098 36.0269C27.3753 36.1278 27.3106 36.2015 27.2158 36.248C27.1311 36.298 27.0332 36.304 26.9222 36.266L25.4991 35.7794ZM30.0232 37.3263C29.9223 37.2917 29.8486 37.2271 29.8021 37.1323C29.7556 37.0375 29.7496 36.9396 29.7841 36.8387L33.1539 26.9828C33.1918 26.8718 33.2532 26.7913 33.3379 26.7414C33.4327 26.6949 33.5356 26.6906 33.6466 26.7286L34.8124 27.1272C34.9335 27.1686 35.0157 27.2249 35.059 27.296C35.1058 27.3571 35.1423 27.4316 35.1686 27.5195L37.2098 35.7928L39.4822 29.1465C39.5202 29.0355 39.5815 28.955 39.6662 28.9051C39.761 28.8586 39.8639 28.8543 39.975 28.8923L41.2467 29.3271C41.3577 29.365 41.4365 29.4314 41.483 29.5262C41.5295 29.621 41.5337 29.724 41.4958 29.835L38.1312 39.6757C38.0932 39.7867 38.0268 39.8655 37.932 39.912C37.8372 39.9585 37.7393 39.9644 37.6384 39.9299L36.4575 39.5262C36.286 39.4675 36.1672 39.3367 36.1013 39.1338L34.0235 31.0171L31.7977 37.5271C31.7597 37.6382 31.6933 37.7169 31.5985 37.7634C31.5072 37.7998 31.406 37.799 31.2949 37.7611L30.0232 37.3263ZM40.7274 40.9861C40.6264 40.9516 40.5527 40.8869 40.5062 40.7921C40.4597 40.6973 40.4537 40.5994 40.4882 40.4985L43.858 30.6426C43.896 30.5316 43.9573 30.4511 44.042 30.4012C44.1368 30.3547 44.2397 30.3504 44.3508 30.3884L45.6831 30.8439C45.7941 30.8819 45.8728 30.9482 45.9193 31.0431C45.9658 31.1379 45.9701 31.2408 45.9321 31.3518L44.7209 34.8945L49.3899 32.4157C49.5832 32.2789 49.8111 32.2553 50.0735 32.345L51.5723 32.8575C51.6531 32.8851 51.7134 32.9395 51.7532 33.0208C51.8032 33.1055 51.8126 33.1933 51.7816 33.2841C51.7574 33.3548 51.7165 33.4084 51.6589 33.4451L45.9323 36.5937L48.6699 43.1268C48.6997 43.2046 48.7025 43.2788 48.6783 43.3495C48.6473 43.4403 48.5861 43.5039 48.4947 43.5403C48.4135 43.5802 48.3325 43.5863 48.2517 43.5587L46.6923 43.0255C46.44 42.9393 46.2743 42.7811 46.1951 42.5511L43.903 37.2865L42.5624 41.2076C42.5244 41.3187 42.458 41.3974 42.3632 41.4439C42.2719 41.4803 42.1707 41.4795 42.0596 41.4416L40.7274 40.9861Z" fill="#3275EE"/>
</svg>
