<svg width="24" height="24" viewBox="0 0 24 24" fill="none" xmlns="http://www.w3.org/2000/svg">
<rect x="0.85" y="3.85" width="22.3" height="19.3" rx="2.15" stroke="#001D3A" stroke-opacity="0.9" stroke-width="1.7"/>
<line x1="1" y1="8.15" x2="23" y2="8.15" stroke="#001D3A" stroke-opacity="0.9" stroke-width="1.7"/>
<line x1="4.85" y1="0.85" x2="4.85" y2="6.15" stroke="#001D3A" stroke-opacity="0.9" stroke-width="1.7" stroke-linecap="round" stroke-linejoin="bevel"/>
<line x1="18.85" y1="0.85" x2="18.85" y2="6.15" stroke="#001D3A" stroke-opacity="0.9" stroke-width="1.7" stroke-linecap="round" stroke-linejoin="bevel"/>
<rect x="3" y="11" width="2" height="2" fill="#001D3A" fill-opacity="0.9"/>
<rect x="3" y="15" width="2" height="2" fill="#001D3A" fill-opacity="0.9"/>
<rect x="3" y="19" width="2" height="2" fill="#001D3A" fill-opacity="0.9"/>
<rect x="7" y="11" width="2" height="2" fill="#001D3A" fill-opacity="0.9"/>
<rect x="7" y="15" width="2" height="2" fill="#001D3A" fill-opacity="0.9"/>
<rect x="7" y="19" width="2" height="2" fill="#001D3A" fill-opacity="0.9"/>
<rect x="11" y="11" width="2" height="2" fill="#001D3A" fill-opacity="0.9"/>
<rect x="11" y="15" width="2" height="2" fill="#001D3A" fill-opacity="0.9"/>
<rect x="11" y="19" width="2" height="2" fill="#001D3A" fill-opacity="0.9"/>
<rect x="15" y="11" width="2" height="2" fill="#001D3A" fill-opacity="0.9"/>
<rect x="15" y="15" width="2" height="2" fill="#001D3A" fill-opacity="0.9"/>
<rect x="15" y="19" width="2" height="2" fill="#001D3A" fill-opacity="0.9"/>
<rect x="19" y="11" width="2" height="2" fill="#001D3A" fill-opacity="0.9"/>
<rect x="19" y="15" width="2" height="2" fill="#001D3A" fill-opacity="0.9"/>
</svg>
