<svg width="12" height="12" viewBox="0 0 12 12" fill="none" xmlns="http://www.w3.org/2000/svg">
<path d="M7.0994 6.0117L11.772 1.33899C12.0761 1.03504 12.0761 0.543615 11.772 0.239674C11.468 -0.0642664 10.9766 -0.0642664 10.6727 0.239674L5.99994 4.91239L1.32737 0.239674C1.02329 -0.0642664 0.532003 -0.0642664 0.228062 0.239674C-0.0760207 0.543615 -0.0760207 1.03504 0.228062 1.33899L4.90063 6.0117L0.228062 10.6844C-0.0760207 10.9884 -0.0760207 11.4798 0.228062 11.7837C0.379534 11.9353 0.578697 12.0115 0.777718 12.0115C0.976738 12.0115 1.17576 11.9353 1.32737 11.7837L5.99994 7.11101L10.6727 11.7837C10.8243 11.9353 11.0233 12.0115 11.2223 12.0115C11.4213 12.0115 11.6204 11.9353 11.772 11.7837C12.0761 11.4798 12.0761 10.9884 11.772 10.6844L7.0994 6.0117Z" fill="#001D3A" fill-opacity="0.9"/>
</svg>
