<svg width="16" height="16" viewBox="0 0 16 16" fill="none" xmlns="http://www.w3.org/2000/svg">
<path d="M15.3831 1.84602L1.84597 15.3831C1.50631 15.7228 0.954984 15.7228 0.615324 15.3831C0.275664 15.0435 0.275664 14.4922 0.615324 14.1525L14.1525 0.615375C14.4921 0.275714 15.0434 0.275715 15.3831 0.615375C15.7228 0.955035 15.7228 1.50636 15.3831 1.84602Z" fill="#3275EE"/>
<path d="M14.1532 15.3849L0.616121 1.8478C0.276461 1.50814 0.276461 0.956815 0.616121 0.617155C0.955781 0.277495 1.50711 0.277495 1.84677 0.617155L15.3839 14.1543C15.7236 14.4939 15.7236 15.0453 15.3839 15.3849C15.0442 15.7246 14.4929 15.7246 14.1532 15.3849Z" fill="#3275EE"/>
</svg>
