<svg width="32" height="32" viewBox="0 0 32 32" fill="none" xmlns="http://www.w3.org/2000/svg">
<path d="M28.3741 11.4464H27.6058V7.73837C27.6058 7.71526 27.6021 7.69197 27.599 7.66857C27.5978 7.52132 27.5509 7.37675 27.4501 7.26219L21.2804 0.214601C21.2786 0.212792 21.2766 0.21215 21.2754 0.210224C21.2387 0.169136 21.1958 0.134936 21.1505 0.105404C21.137 0.096416 21.1235 0.0888871 21.1094 0.0810081C21.0702 0.0596472 21.0285 0.0418464 20.9856 0.0289481C20.974 0.0257382 20.9636 0.0211275 20.952 0.0179759C20.9053 0.00688685 20.8569 0 20.808 0H5.64491C4.95249 0 4.39004 0.563146 4.39004 1.25492V11.4461H3.6218C2.63126 11.4461 1.82812 12.2487 1.82812 13.2396V22.5667C1.82812 23.5566 2.63126 24.3603 3.6218 24.3603H4.39004V30.7451C4.39004 31.437 4.95249 32 5.64491 32H26.3509C27.0426 32 27.6058 31.437 27.6058 30.7451V24.3603H28.3741C29.3643 24.3603 30.1675 23.557 30.1675 22.5668V13.2399C30.1676 12.2488 29.3643 11.4464 28.3741 11.4464ZM5.64491 1.25492H20.1805V7.67522C20.1805 8.02208 20.4617 8.30269 20.8079 8.30269H26.3509V11.4464H5.64491V1.25492ZM20.7016 17.3934C20.7016 20.246 18.972 21.9752 16.4289 21.9752C13.8476 21.9752 12.3373 20.0263 12.3373 17.5484C12.3373 14.9409 14.0023 12.992 16.5708 12.992C19.2423 12.992 20.7016 14.9923 20.7016 17.3934ZM3.75324 21.7947V13.2506C4.47601 13.1342 5.41805 13.0696 6.41239 13.0696C8.06436 13.0696 9.13544 13.3666 9.97447 13.9988C10.8779 14.6701 11.4462 15.7415 11.4462 17.2772C11.4462 18.9423 10.8396 20.0909 10.0009 20.8008C9.08431 21.5624 7.69019 21.9236 5.98628 21.9236C4.96603 21.9237 4.24355 21.8591 3.75324 21.7947ZM26.3509 30.405H5.64491V24.3603H26.3509V30.405ZM26.4458 20.3365C27.0395 20.3365 27.6979 20.2067 28.0849 20.0524L28.3821 21.5882C28.0205 21.7696 27.2075 21.9623 26.1493 21.9623C23.1419 21.9623 21.5929 20.091 21.5929 17.6127C21.5929 14.6448 23.7096 12.992 26.3422 12.992C27.3618 12.992 28.137 13.1985 28.4857 13.3795L28.0852 14.9409C27.6854 14.7733 27.1303 14.6181 26.433 14.6181C24.8713 14.6181 23.6579 15.5605 23.6579 17.4963C23.6576 19.239 24.6903 20.3365 26.4458 20.3365Z" fill="#3275EE"/>
<path d="M9.35355 17.3405C9.36645 15.5331 8.30786 14.5781 6.61748 14.5781C6.17859 14.5781 5.89401 14.6167 5.72656 14.6557V20.348C5.89395 20.3868 6.16545 20.3868 6.41081 20.3868C8.19183 20.3994 9.35355 19.4184 9.35355 17.3405Z" fill="#3275EE"/>
<path d="M14.4141 17.5091C14.4141 19.2135 15.2145 20.4136 16.5308 20.4136C17.8605 20.4136 18.6218 19.1483 18.6218 17.4577C18.6218 15.8955 17.8734 14.5537 16.5179 14.5537C15.1891 14.5541 14.4141 15.8189 14.4141 17.5091Z" fill="#3275EE"/>
</svg>
