<svg width="24" height="24" viewBox="0 0 24 24" fill="none" xmlns="http://www.w3.org/2000/svg">
<g clip-path="url(#clip0)">
<line x1="0.8" y1="23.2" x2="23.2" y2="23.2" stroke="#3275EE" stroke-width="1.6" stroke-linecap="round"/>
<path d="M11.4343 18.5657C11.7467 18.8781 12.2533 18.8781 12.5657 18.5657L17.6569 13.4745C17.9693 13.1621 17.9693 12.6556 17.6569 12.3431C17.3444 12.0307 16.8379 12.0307 16.5255 12.3431L12 16.8686L7.47452 12.3431C7.1621 12.0307 6.65557 12.0307 6.34315 12.3431C6.03073 12.6556 6.03073 13.1621 6.34315 13.4745L11.4343 18.5657ZM11.2 3.49692e-08L11.2 18L12.8 18L12.8 -3.49692e-08L11.2 3.49692e-08Z" fill="#3275EE"/>
</g>
<defs>
<clipPath id="clip0">
<rect width="24" height="24" fill="white"/>
</clipPath>
</defs>
</svg>
