<svg width="16" height="16" viewBox="0 0 16 16" fill="none" xmlns="http://www.w3.org/2000/svg">
<path d="M6.66797 0.85C6.66797 0.380558 7.26492 0 8.0013 0C8.73768 0 9.33464 0.380558 9.33464 0.85V15.15C9.33464 15.6194 8.73768 16 8.0013 16C7.26492 16 6.66797 15.6194 6.66797 15.15V0.85Z" fill="#3275EE"/>
<path d="M15.15 6.66797C15.6194 6.66797 16 7.26492 16 8.0013C16 8.73768 15.6194 9.33464 15.15 9.33464L0.85 9.33464C0.380558 9.33464 -9.04701e-08 8.73768 -5.82819e-08 8.0013C-2.60937e-08 7.26492 0.380558 6.66797 0.85 6.66797L15.15 6.66797Z" fill="#3275EE"/>
</svg>
