<svg width="24" height="24" viewBox="0 0 24 24" fill="none" xmlns="http://www.w3.org/2000/svg">
<path d="M0.363604 11.3636C0.012132 11.7151 0.012132 12.2849 0.363604 12.6364C0.715076 12.9879 1.28492 12.9879 1.6364 12.6364L0.363604 11.3636ZM12 1L12.6364 0.363604C12.4676 0.194821 12.2387 0.1 12 0.1C11.7613 0.1 11.5324 0.194821 11.3636 0.363604L12 1ZM22.3636 12.6364C22.7151 12.9879 23.2849 12.9879 23.6364 12.6364C23.9879 12.2849 23.9879 11.7151 23.6364 11.3636L22.3636 12.6364ZM19.7087 9.38095V21.9524H21.5087V9.38095H19.7087ZM4.2913 21.9524V9.38095H2.4913V21.9524H4.2913ZM8.65217 22.1H4.34783V23.9H8.65217V22.1ZM19.6522 22.1H15.3478V23.9H19.6522V22.1ZM10.5087 21.9524V15.6667H8.7087V21.9524H10.5087ZM10.5652 15.519H13.4348V13.719H10.5652V15.519ZM13.4913 15.6667V21.9524H15.2913V15.6667H13.4913ZM13.4348 15.519C13.4224 15.519 13.4273 15.5117 13.4465 15.5327C13.4669 15.5551 13.4913 15.6001 13.4913 15.6667H15.2913C15.2913 14.6698 14.5354 13.719 13.4348 13.719V15.519ZM10.5087 15.6667C10.5087 15.6001 10.5331 15.5551 10.5535 15.5327C10.5727 15.5117 10.5776 15.519 10.5652 15.519V13.719C9.46458 13.719 8.7087 14.6698 8.7087 15.6667H10.5087ZM15.3478 22.1C15.3602 22.1 15.3553 22.1073 15.3361 22.0863C15.3157 22.0639 15.2913 22.019 15.2913 21.9524H13.4913C13.4913 22.9492 14.2472 23.9 15.3478 23.9V22.1ZM8.65217 23.9C9.75281 23.9 10.5087 22.9492 10.5087 21.9524H8.7087C8.7087 22.019 8.68433 22.0639 8.6639 22.0863C8.64471 22.1073 8.63978 22.1 8.65217 22.1V23.9ZM2.4913 21.9524C2.4913 22.9492 3.24719 23.9 4.34783 23.9V22.1C4.36022 22.1 4.35529 22.1073 4.3361 22.0863C4.31567 22.0639 4.2913 22.019 4.2913 21.9524H2.4913ZM19.7087 21.9524C19.7087 22.019 19.6843 22.0639 19.6639 22.0863C19.6447 22.1073 19.6398 22.1 19.6522 22.1V23.9C20.7528 23.9 21.5087 22.9492 21.5087 21.9524H19.7087ZM1.6364 12.6364L12.6364 1.6364L11.3636 0.363604L0.363604 11.3636L1.6364 12.6364ZM11.3636 1.6364L22.3636 12.6364L23.6364 11.3636L12.6364 0.363604L11.3636 1.6364Z" fill="#3275EE"/>
</svg>
