<svg width="17" height="24" viewBox="0 0 17 24" fill="none" xmlns="http://www.w3.org/2000/svg">
<path d="M1.00013 8.51037C0.989408 6.69885 1.65136 4.94501 2.86319 3.57424C4.07501 2.20346 5.75444 1.3088 7.5899 1.05622C8.63404 0.928968 9.69391 1.01831 10.7003 1.31843C11.7068 1.61854 12.6371 2.12267 13.4307 2.79794C14.2243 3.4732 14.8633 4.30441 15.306 5.23734C15.7487 6.17026 15.9852 7.18393 16 8.2122V8.2122C16.0008 9.33626 15.7253 10.4441 15.1966 11.4423L9.30853 22.5937C9.24185 22.7164 9.14225 22.8191 9.02043 22.8906C8.89861 22.9622 8.75915 23 8.61701 23C8.47487 23 8.33542 22.9622 8.21359 22.8906C8.09177 22.8191 7.99218 22.7164 7.92549 22.5937L1.68148 11.164C1.23398 10.3479 0.999915 9.4363 1.00013 8.51037V8.51037Z" stroke="#3275EE" stroke-width="1.8" stroke-miterlimit="10"/>
<path d="M8.50403 12.17C10.2807 12.17 11.721 10.6935 11.721 8.87212C11.721 7.05074 10.2807 5.57422 8.50403 5.57422C6.72737 5.57422 5.28711 7.05074 5.28711 8.87212C5.28711 10.6935 6.72737 12.17 8.50403 12.17Z" stroke="#3275EE" stroke-width="1.8" stroke-miterlimit="10"/>
</svg>
