<svg width="73" height="73" viewBox="0 0 73 73" fill="none" xmlns="http://www.w3.org/2000/svg">
<g clip-path="url(#clip0_2071:47)">
<g clip-path="url(#clip1_2071:47)">
<path d="M34.7378 6.83075L48.7497 12.8506L39.7898 16.0149C38.9018 16.3285 37.9276 15.8629 37.614 14.9749L34.7378 6.83075ZM32.108 6.21201L35.4701 15.732C36.2019 17.8041 38.4749 18.8906 40.547 18.1588L51.1772 14.4046L65.2206 54.1691C65.6242 55.312 65.0469 56.4695 64.0605 56.8179L28.8391 69.2568C27.8526 69.6052 26.6765 69.067 26.2728 67.924L8.2454 16.8785C7.84176 15.7356 8.41903 14.5781 9.40549 14.2297L32.108 6.21201ZM24.7172 42.0064C24.1252 42.2155 23.8147 42.8649 24.0238 43.4569C24.2329 44.049 24.8823 44.3594 25.4744 44.1503L49.9337 35.5122C50.5257 35.3031 50.8361 34.6537 50.6271 34.0616C50.418 33.4696 49.7686 33.1592 49.1765 33.3683L24.7172 42.0064ZM26.8805 48.1319C26.2885 48.341 25.978 48.9904 26.1871 49.5824C26.3962 50.1744 27.0456 50.4849 27.6377 50.2758L40.3565 45.7839C40.9485 45.5749 41.259 44.9254 41.0499 44.3334C40.8408 43.7414 40.1914 43.431 39.5993 43.64L26.8805 48.1319ZM30.7326 56.0148C30.5235 55.4228 29.8741 55.1124 29.282 55.3214C28.69 55.5305 28.3796 56.1799 28.5887 56.772L30.0759 60.9832C30.4593 62.0686 31.6499 62.6377 32.7352 62.2544L36.4648 60.9373C37.0568 60.7282 37.3672 60.0788 37.1581 59.4868C36.9491 58.8947 36.2996 58.5843 35.7076 58.7934L32.1567 60.0474L30.7326 56.0148ZM22.5539 35.8809C21.9619 36.09 21.6515 36.7395 21.8605 37.3315C22.0696 37.9235 22.719 38.2339 23.3111 38.0249L35.5407 33.7058L47.7704 29.3867C48.3624 29.1776 48.6728 28.5282 48.4638 27.9362C48.2547 27.3442 47.6053 27.0337 47.0132 27.2428L34.7836 31.5619L22.5539 35.8809ZM20.3906 29.7555C19.7986 29.9646 19.4882 30.614 19.6972 31.206C19.9063 31.798 20.5558 32.1085 21.1478 31.8994L33.3774 27.5803L45.6071 23.2612C46.1991 23.0522 46.5096 22.4027 46.3005 21.8107C46.0914 21.2187 45.442 20.9083 44.8499 21.1173L32.6203 25.4364L20.3906 29.7555Z" fill="white" stroke="#3275EE" stroke-width="2.27368" stroke-linecap="round"/>
<path d="M49.9831 46.9469C49.615 46.9261 49.3748 46.8579 49.2278 46.7754C49.1102 46.7095 49.0072 46.5963 48.934 46.3888C48.8338 46.1051 48.8709 45.8909 49.0254 45.6853L48.6467 45.4007L49.0254 45.6853C49.2058 45.4452 49.5272 45.217 50.0501 45.0324C50.518 44.8671 50.9073 44.8442 51.2349 44.9247L51.2348 44.9248L51.2446 44.9269C51.5766 45.0011 51.7464 45.142 51.8389 45.3144L51.866 45.3649L51.9044 45.4075C52.035 45.5525 52.2028 45.6659 52.408 45.7142C52.6111 45.762 52.8104 45.7365 52.9908 45.6728L54.4483 45.1581C54.6546 45.0852 54.8234 44.9416 54.9207 44.7346C55.0177 44.5281 55.0205 44.3079 54.9485 44.104L54.9443 44.0921L54.9395 44.0804C54.7429 43.6061 54.4026 43.1928 53.949 42.8348C53.4868 42.4578 52.9206 42.2026 52.2672 42.0562C51.7163 41.9197 51.1303 41.897 50.5142 41.9792L50.2485 41.227C50.1704 41.0059 50.0173 40.8313 49.8039 40.7275L49.5968 41.1535L49.8039 40.7275C49.5902 40.6236 49.3569 40.6109 49.1334 40.6898L48.1774 41.0274C47.9594 41.1044 47.7889 41.2551 47.6869 41.462C47.5643 41.6901 47.5721 41.9337 47.647 42.1458L47.8988 42.8588C47.0384 43.356 46.3938 43.9916 45.9986 44.7767L49.9831 46.9469ZM49.9831 46.9469C50.3702 46.9644 50.9242 46.946 51.6545 46.8873C52.6626 46.7731 53.5143 46.7497 54.1987 46.8278C54.908 46.9038 55.5222 47.116 56.0111 47.4919C56.5059 47.8723 56.8628 48.4265 57.1048 49.1117C57.4688 50.1424 57.4029 51.1435 56.8932 52.0785L56.8912 52.0823L56.8912 52.0823C56.443 52.8869 55.7267 53.5393 54.7784 54.0536L55.027 54.7575C55.1051 54.9786 55.0956 55.2106 54.9947 55.4254C54.8936 55.6405 54.7201 55.7969 54.4966 55.8758L53.5406 56.2135C53.3226 56.2904 53.0953 56.2802 52.8859 56.1833C52.6472 56.0828 52.5003 55.8883 52.4255 55.6762L52.1719 54.9584C51.5037 55.0845 50.8709 55.1085 50.2771 55.0219L50.2662 55.0203L50.2662 55.0202C49.5689 54.9018 48.9603 54.6612 48.4574 54.2839L48.4467 54.2758L48.4468 54.2757C47.961 53.8892 47.6005 53.4147 47.3755 52.8551L47.3717 52.8457L47.3683 52.8361C47.2963 52.6322 47.2991 52.412 47.3962 52.2055L47.4039 52.189L47.4129 52.1732C47.5181 51.9878 47.6791 51.8489 47.8842 51.7764L49.279 51.2839C49.4466 51.2247 49.6507 51.1931 49.858 51.2586C50.0371 51.3009 50.1908 51.397 50.3174 51.5029L50.3586 51.5373L50.391 51.5801C50.5574 51.7997 50.8037 51.9642 51.1673 52.0568C51.5078 52.1376 51.9684 52.1024 52.5768 51.8875C53.2682 51.6433 53.6787 51.367 53.8888 51.0966C54.0815 50.8344 54.117 50.5838 54.0142 50.2925C53.9461 50.0998 53.8445 49.9935 53.7136 49.9299C53.5475 49.8491 53.282 49.7907 52.8837 49.7897L52.8723 49.7897L52.8723 49.7895C52.4621 49.7786 51.8559 49.8082 51.0432 49.8826C49.6773 50.0242 48.5498 49.9585 47.7025 49.6362L47.6938 49.6328L47.6938 49.6328C46.8015 49.273 46.1885 48.5472 45.8321 47.5379C45.4984 46.593 45.5524 45.6622 45.9985 44.7769L49.9831 46.9469Z" stroke="white" stroke-width="0.947368"/>
<rect x="18.6543" y="29.8535" width="29.3684" height="2.84211" rx="0.947368" transform="rotate(-19.4514 18.6543 29.8535)" fill="white"/>
<rect x="18.6543" y="29.8535" width="29.3684" height="2.84211" rx="0.947368" transform="rotate(-19.4514 18.6543 29.8535)" fill="white"/>
<rect x="20.8623" y="36.1035" width="29.3684" height="2.84211" rx="0.947368" transform="rotate(-19.4514 20.8623 36.1035)" fill="white"/>
<rect x="20.8623" y="36.1035" width="29.3684" height="2.84211" rx="0.947368" transform="rotate(-19.4514 20.8623 36.1035)" fill="white"/>
<rect x="23.0713" y="42.3584" width="29.3684" height="2.84211" rx="0.947368" transform="rotate(-19.4514 23.0713 42.3584)" fill="white"/>
<rect x="23.0713" y="42.3584" width="29.3684" height="2.84211" rx="0.947368" transform="rotate(-19.4514 23.0713 42.3584)" fill="white"/>
<rect x="25.2793" y="48.6113" width="17.0526" height="2.84211" rx="0.947368" transform="rotate(-19.4514 25.2793 48.6113)" fill="white"/>
<rect x="25.2793" y="48.6113" width="17.0526" height="2.84211" rx="0.947368" transform="rotate(-19.4514 25.2793 48.6113)" fill="white"/>
</g>
<g clip-path="url(#clip2_2071:47)">
<path d="M44.9056 8.93056L55.1018 18.3397H46.3266C45.5418 18.3397 44.9056 17.7035 44.9056 16.9186V8.93056ZM42.0635 7.1066V16.9186C42.0635 19.2731 43.9721 21.1818 46.3266 21.1818H57.3161V63.069C57.3161 64.1357 56.5023 64.8961 55.6244 64.8961H18.271C17.3931 64.8961 16.5793 64.1357 16.5793 63.069V8.93367C16.5793 7.867 17.3931 7.1066 18.271 7.1066H42.0635ZM23.459 37.8284C22.6741 37.8284 22.0379 38.4646 22.0379 39.2495C22.0379 40.0343 22.6741 40.6705 23.459 40.6705H49.3988C50.1836 40.6705 50.8199 40.0343 50.8199 39.2495C50.8199 38.4646 50.1836 37.8284 49.3988 37.8284H23.459ZM23.459 44.3246C22.6741 44.3246 22.0379 44.9609 22.0379 45.7457C22.0379 46.5305 22.6741 47.1668 23.459 47.1668H36.9477C37.7325 47.1668 38.3687 46.5305 38.3687 45.7457C38.3687 44.9609 37.7325 44.3246 36.9477 44.3246H23.459ZM24.7503 53.3246C24.7503 52.5398 24.1141 51.9036 23.3293 51.9036C22.5444 51.9036 21.9082 52.5398 21.9082 53.3246V57.7908C21.9082 59.0989 22.9686 60.1592 24.2766 60.1592H28.2319C29.0167 60.1592 29.6529 59.523 29.6529 58.7382C29.6529 57.9534 29.0167 57.3171 28.2319 57.3171H24.7503V53.3246ZM23.459 31.3322C22.6741 31.3322 22.0379 31.9684 22.0379 32.7532C22.0379 33.538 22.6741 34.1743 23.459 34.1743H36.4289H49.3988C50.1836 34.1743 50.8199 33.538 50.8199 32.7532C50.8199 31.9684 50.1836 31.3322 49.3988 31.3322H36.4289H23.459ZM23.459 24.8359C22.6741 24.8359 22.0379 25.4722 22.0379 26.257C22.0379 27.0418 22.6741 27.678 23.459 27.678H36.4289H49.3988C50.1836 27.678 50.8199 27.0418 50.8199 26.257C50.8199 25.4722 50.1836 24.8359 49.3988 24.8359H36.4289H23.459Z" fill="white" stroke="#3275EE" stroke-width="2.84211" stroke-linecap="round"/>
<path d="M45.9062 60.6335C45.7954 60.6335 45.7012 60.5942 45.6236 60.5156C45.5461 60.4482 45.5073 60.3528 45.5073 60.2293V59.0503C44.7095 58.9717 44.0225 58.7808 43.4463 58.4777C42.8812 58.1633 42.4491 57.7816 42.1499 57.3324C41.8619 56.8721 41.7067 56.3837 41.6846 55.8672C41.6846 55.7661 41.7178 55.6819 41.7843 55.6145C41.8619 55.5472 41.9505 55.5135 42.0502 55.5135H43.5294C43.6513 55.5135 43.7455 55.5416 43.812 55.5977C43.8896 55.6426 43.9616 55.7212 44.0281 55.8335C44.1499 56.2152 44.4048 56.5352 44.7926 56.7935C45.1915 57.0517 45.74 57.1808 46.438 57.1808C47.2137 57.1808 47.8009 57.0517 48.1998 56.7935C48.5987 56.524 48.7981 56.1535 48.7981 55.6819C48.7981 55.3675 48.6984 55.1093 48.499 54.9072C48.2995 54.7051 47.9948 54.531 47.5848 54.3851C47.1749 54.2279 46.571 54.0482 45.7732 53.8461C44.4657 53.5317 43.5073 53.1163 42.8979 52.5998C42.2995 52.0721 42.0004 51.3254 42.0004 50.3598C42.0004 49.484 42.3106 48.7486 42.9311 48.1535C43.5627 47.5472 44.4214 47.1766 45.5073 47.0419V45.8798C45.5073 45.7563 45.5461 45.6608 45.6236 45.5935C45.7012 45.5149 45.7954 45.4756 45.9062 45.4756H46.92C47.0308 45.4756 47.125 45.5149 47.2026 45.5935C47.2801 45.6721 47.3189 45.7675 47.3189 45.8798V47.0756C48.0391 47.1766 48.6541 47.3956 49.1638 47.7324C49.6846 48.058 50.0779 48.4398 50.3439 48.8777C50.6209 49.3156 50.7704 49.7423 50.7926 50.1577C50.7926 50.2587 50.7594 50.343 50.6929 50.4103C50.6264 50.4777 50.5433 50.5114 50.4436 50.5114H48.8979C48.6541 50.5114 48.4879 50.4047 48.3993 50.1914C48.3439 49.8321 48.1278 49.5345 47.7511 49.2987C47.3743 49.0517 46.9034 48.9282 46.3383 48.9282C45.7289 48.9282 45.2469 49.0461 44.8923 49.2819C44.5378 49.5177 44.3605 49.8601 44.3605 50.3093C44.3605 50.6237 44.4491 50.8819 44.6264 51.084C44.8037 51.2861 45.0807 51.4658 45.4574 51.623C45.8452 51.7801 46.3993 51.9542 47.1195 52.1451C48.0945 52.3696 48.8702 52.6223 49.4463 52.903C50.0336 53.1837 50.4657 53.5373 50.7427 53.964C51.0198 54.3907 51.1583 54.9352 51.1583 55.5977C51.1583 56.5633 50.8148 57.3549 50.1278 57.9724C49.4408 58.5787 48.5045 58.9437 47.3189 59.0672V60.2293C47.3189 60.3416 47.2801 60.437 47.2026 60.5156C47.125 60.5942 47.0308 60.6335 46.92 60.6335H45.9062Z" fill="#3275EE"/>
</g>
</g>
<defs>
<clipPath id="clip0_2071:47">
<rect width="73" height="73" fill="white"/>
</clipPath>
<clipPath id="clip1_2071:47">
<rect width="60.6316" height="60.6316" fill="white" transform="translate(-2.8418 17.3486) rotate(-19.4514)"/>
</clipPath>
<clipPath id="clip2_2071:47">
<rect width="60.6316" height="60.6316" fill="white" transform="translate(5.68457 5.68457)"/>
</clipPath>
</defs>
</svg>
