<svg width="16" height="16" viewBox="0 0 16 16" fill="none" xmlns="http://www.w3.org/2000/svg">
<path d="M7.10357 0.929264C7.38536 0.00795364 8.61209 0.00795364 8.89388 0.929264L10.0061 4.56656C10.1321 4.97858 10.4935 5.25754 10.9012 5.25754H14.5007C15.4124 5.25754 15.7915 6.49712 15.0539 7.06652L12.1418 9.31452C11.8119 9.56912 11.674 10.0205 11.8 10.4325L12.9123 14.0698C13.194 14.9911 12.2016 15.7573 11.4639 15.1879L8.55195 12.9399C8.22207 12.6853 7.77538 12.6852 7.4455 12.9399L4.53345 15.1879C3.79585 15.7573 2.80339 14.9911 3.08513 14.0698L4.19744 10.4325C4.32344 10.0205 4.18541 9.56922 3.85554 9.31452L0.943487 7.06652C0.205865 6.49712 0.584953 5.25754 1.49669 5.25754H5.09619C5.50394 5.25754 5.86527 4.97858 5.99129 4.56656L7.10357 0.929264Z" fill="#FFD94B"/>
</svg>
