<svg width="16" height="16" viewBox="0 0 16 16" fill="none" xmlns="http://www.w3.org/2000/svg">
<path d="M8.41617 1.07404L9.52841 4.71134C9.71369 5.31711 10.2573 5.75607 10.9016 5.75607H14.5011C14.6964 5.75607 14.8531 5.88065 14.9181 6.09327C14.9836 6.30734 14.9279 6.53101 14.7488 6.66926L11.8368 8.91723C11.3348 9.30469 11.1382 9.97534 11.3223 10.5772L12.4346 14.2145C12.5106 14.4631 12.4167 14.6737 12.2652 14.7906C12.1184 14.904 11.9378 14.9203 11.7698 14.7906L8.85787 12.5426C8.3481 12.1492 7.65033 12.149 7.14036 12.5427L4.22835 14.7906C4.06041 14.9203 3.87986 14.904 3.73301 14.7906C3.5815 14.6736 3.48769 14.4631 3.5637 14.2146L4.67601 10.5773C4.86012 9.97523 4.66333 9.30474 4.1615 8.91726L1.24944 6.66926C1.07033 6.531 1.01468 6.30732 1.08015 6.09326C1.14517 5.88065 1.30182 5.75607 1.49712 5.75607H5.09662C5.74089 5.75607 6.28457 5.31709 6.46986 4.71131L7.58214 1.07402C7.71968 0.624418 8.27863 0.624446 8.41617 1.07404Z" stroke="#646464"/>
</svg>
