<svg width="18" height="18" viewBox="0 0 18 18" fill="none" xmlns="http://www.w3.org/2000/svg">
<g clip-path="url(#clip0)">
<path d="M14.5553 10.6758C13.4134 10.6758 12.4844 11.6048 12.4844 12.7468C12.4844 13.8885 13.4134 14.8175 14.5553 14.8175C15.6974 14.8175 16.6263 13.8885 16.6263 12.7468C16.6263 11.6048 15.6973 10.6758 14.5553 10.6758ZM14.5553 13.656C14.0536 13.656 13.6457 13.2481 13.6457 12.7466C13.6457 12.2449 14.0536 11.8369 14.5553 11.8369C15.057 11.8369 15.465 12.2451 15.465 12.7466C15.465 13.248 15.057 13.656 14.5553 13.656Z" fill="#001D3A"/>
<path d="M11.5742 3.18335H0.580641C0.259945 3.18335 0 3.44329 0 3.76403V12.7059C0 13.0266 0.259945 13.2866 0.580641 13.2866H2.40001V12.1253H1.16128V4.34467H10.9935V12.7059H12.1548V3.76403C12.1549 3.44329 11.8949 3.18335 11.5742 3.18335Z" fill="#001D3A"/>
<path d="M13.0645 12.1255H5.24512V13.2868H13.0645V12.1255Z" fill="#001D3A"/>
<path d="M3.81317 10.6758C2.67123 10.6758 1.74219 11.6048 1.74219 12.7468C1.74219 13.8885 2.67123 14.8175 3.81317 14.8175C4.95512 14.8175 5.88416 13.8885 5.88416 12.7468C5.88412 11.6048 4.95512 10.6758 3.81317 10.6758ZM3.81317 13.656C3.31149 13.656 2.9035 13.2481 2.9035 12.7466C2.9035 12.2449 3.31149 11.8369 3.81317 11.8369C4.31485 11.8369 4.72284 12.2451 4.72284 12.7466C4.72284 13.248 4.31464 13.656 3.81317 13.656Z" fill="#001D3A"/>
<path d="M17.4194 8.00391H11.5742V9.16519H16.8387V12.1265H16.0065V13.2877H17.4194C17.7401 13.2877 18 13.028 18 12.7071V8.58455C18 8.26385 17.7401 8.00391 17.4194 8.00391Z" fill="#001D3A"/>
<path d="M15.6637 4.09397C15.5617 3.90856 15.3666 3.79321 15.1549 3.79321H11.5742V4.95449H14.8115L16.4999 8.25L17.9999 8.625L15.6637 4.09397Z" fill="#001D3A"/>
<line x1="3" y1="6" x2="9" y2="6" stroke="#001D3A" stroke-width="1.5" stroke-linecap="round"/>
</g>
<defs>
<clipPath id="clip0">
<rect width="18" height="18" fill="white"/>
</clipPath>
</defs>
</svg>
