<svg width="24" height="24" viewBox="0 0 24 24" fill="none" xmlns="http://www.w3.org/2000/svg">
<path d="M16.3971 17.0781V18.7188C16.3971 20.5281 15.0653 22 13.4282 22H5.96888C4.33179 22 3 20.5281 3 18.7188V4.28125C3 2.47192 4.33179 1 5.96888 1H13.4282C15.0653 1 16.3971 2.47192 16.3971 4.28125V5.92188C16.3971 6.37497 16.0648 6.74219 15.6549 6.74219C15.2449 6.74219 14.9126 6.37497 14.9126 5.92188V4.28125C14.9126 3.37666 14.2467 2.64062 13.4282 2.64062H5.96888C5.15041 2.64062 4.48444 3.37666 4.48444 4.28125V18.7188C4.48444 19.6233 5.15041 20.3594 5.96888 20.3594H13.4282C14.2467 20.3594 14.9126 19.6233 14.9126 18.7188V17.0781C14.9126 16.625 15.2449 16.2578 15.6549 16.2578C16.0648 16.2578 16.3971 16.625 16.3971 17.0781ZM21.4574 10.0909L19.7953 8.254C19.5054 7.93356 19.0354 7.93356 18.7456 8.254C18.4557 8.57427 18.4557 9.0937 18.7456 9.41397L19.9278 10.7207H11.016C10.606 10.7207 10.2738 11.0879 10.2738 11.541C10.2738 11.9941 10.606 12.3613 11.016 12.3613H19.9278L18.7456 13.6681C18.4557 13.9883 18.4557 14.5078 18.7456 14.828C18.8906 14.9883 19.0805 15.0684 19.2704 15.0684C19.4605 15.0684 19.6504 14.9883 19.7953 14.828L21.4574 12.9911C22.1809 12.1915 22.1809 10.8905 21.4574 10.0909Z" fill="#001D3A"/>
</svg>
