<svg width="73" height="74" viewBox="0 0 73 74" fill="none" xmlns="http://www.w3.org/2000/svg">
<rect width="51.9835" height="52.6293" rx="2" transform="matrix(0.964991 -0.262281 0.255396 0.966837 1 15.6328)" fill="#3275EE"/>
<rect width="44.2823" height="34.1116" rx="2" transform="matrix(0.964991 -0.262281 0.255396 0.966837 5.7124 18.3945)" fill="white"/>
<rect x="-1.31364" y="-2.51786" width="56.0007" height="56.6123" rx="4" transform="matrix(0.952761 0.303722 -0.295941 0.955206 18.6479 4.23541)" fill="#3275EE" stroke="white" stroke-width="4"/>
<rect width="44.2969" height="34.1006" rx="2" transform="matrix(0.952761 0.303722 -0.295941 0.955206 21.9727 8.83984)" fill="white"/>
<path d="M50.6568 45.9575L21.2194 36.3822L26.7503 30.7634L29.4892 34.2995L36.4409 29.2304L39.5782 34.7367L49.515 27.3559L50.6568 45.9575Z" fill="#3275EE"/>
<ellipse rx="2.88893" ry="2.92291" transform="matrix(0.952761 0.303722 -0.295941 0.955206 31.304 21.0219)" fill="#3275EE"/>
</svg>
