<svg width="22" height="22" viewBox="0 0 22 22" fill="none" xmlns="http://www.w3.org/2000/svg">
<path d="M20.1502 9.94922C20.763 9.94922 21.2598 10.3389 21.2598 10.8195C21.2598 11.3001 20.763 11.6898 20.1502 11.6898L1.48263 11.6898C0.86981 11.6898 0.373022 11.3001 0.373022 10.8195C0.373022 10.3389 0.86981 9.94922 1.48263 9.94922L20.1502 9.94922Z" fill="#001D3A"/>
<path d="M11.6865 20.1521C11.6865 20.7649 11.2969 21.2617 10.8162 21.2617C10.3356 21.2617 9.94596 20.7649 9.94596 20.1521L9.94596 1.48458C9.94596 0.871763 10.3356 0.374975 10.8162 0.374975C11.2969 0.374975 11.6865 0.871763 11.6865 1.48458L11.6865 20.1521Z" fill="#001D3A"/>
</svg>
