<svg width="60" height="56" viewBox="0 0 60 56" fill="none" xmlns="http://www.w3.org/2000/svg">
<path d="M26.643 3.24656C27.6997 0.0219785 32.3 0.0219785 33.3567 3.24656L37.5276 15.9771C38.0002 17.4192 39.3551 18.3955 40.884 18.3955H54.3823C57.8012 18.3955 59.2229 22.734 56.4569 24.7269L45.5365 32.5949C44.2994 33.486 43.782 35.0659 44.2546 36.5079L48.4257 49.2384C49.482 52.463 45.7606 55.1447 42.9943 53.1518L32.0744 45.2838C30.8374 44.3927 29.1623 44.3923 27.9253 45.2838L17.0051 53.1518C14.2391 55.1447 10.5174 52.463 11.5739 49.2384L15.7451 36.5079C16.2175 35.0659 15.6999 33.4864 14.4629 32.5949L3.54272 24.7269C0.776634 22.734 2.19821 18.3955 5.61723 18.3955H19.1154C20.6444 18.3955 21.9994 17.4192 22.472 15.9771L26.643 3.24656Z" fill="#FFD94B"/>
</svg>
